<?xml version="1.0" encoding="utf-8"?>
<!-- Generator: Adobe Illustrator 15.0.0, SVG Export Plug-In . SVG Version: 6.00 Build 0)  -->
<!DOCTYPE svg PUBLIC "-//W3C//DTD SVG 1.1//EN" "http://www.w3.org/Graphics/SVG/1.1/DTD/svg11.dtd">
<svg version="1.1" id="Layer_1" xmlns="http://www.w3.org/2000/svg" xmlns:xlink="http://www.w3.org/1999/xlink" x="0px" y="0px"
	 width="42px" height="49px" viewBox="0 0 42 49" enable-background="new 0 0 42 49" xml:space="preserve">
<title>Flag white</title>
<desc>Created with Sketch.</desc>
<g id="Points-icons" transform="translate(1289.000000, 3765.067029)">
	<g id="Flag-white" transform="translate(24.000000, 195.000000)">
		<g id="Shape">
			<g>
				<path id="path-1_1_" fill="#FFFFFF" stroke="#FFFFFF" stroke-width="0.6" d="M-1302.048-3915.498l-9.479-34.974
					c-0.262-0.965,0.314-1.955,1.295-2.217l0,0c0.976-0.257,1.977,0.316,2.24,1.282l0,0l9.475,34.974
					c0.264,0.963-0.314,1.956-1.289,2.22l0,0C-1300.787-3913.956-1301.785-3914.532-1302.048-3915.498L-1302.048-3915.498
					L-1302.048-3915.498z"/>
			</g>
		</g>
		<g id="Shape_1_">
			<g>
				<path id="path-3_1_" fill="#FFFFFF" d="M-1276.301-3951.857c-0.52-1.928-1.084-3.992-1.756-6.47
					c-1.818,1.919-3.709,2.737-5.551,3.194c-1.848,0.46-3.652,0.523-5.438,0.501c-1.787-0.018-3.551-0.13-5.333-0.148
					c-1.788-0.021-3.596,0.04-5.44,0.498c-1.844,0.456-3.731,1.274-5.551,3.195c0.669,2.478,1.233,4.541,1.753,6.469
					c0.523,1.927,1.004,3.716,1.529,5.642c0.525,1.929,1.084,3.997,1.756,6.474c1.819-1.92,3.703-2.738,5.55-3.193
					c1.841-0.457,3.649-0.522,5.434-0.508c1.787,0.02,3.553,0.135,5.338,0.159c1.781,0.021,3.598-0.048,5.441-0.504
					c1.842-0.458,3.727-1.276,5.547-3.19c-0.668-2.483-1.23-4.545-1.748-6.477
					C-1275.293-3948.138-1275.781-3949.928-1276.301-3951.857z"/>
			</g>
		</g>
	</g>
</g>
</svg>
